<?xml version="1.0" encoding="utf-8"?>
<!-- Generator: Adobe Illustrator 18.0.0, SVG Export Plug-In . SVG Version: 6.00 Build 0)  -->
<!DOCTYPE svg PUBLIC "-//W3C//DTD SVG 1.1//EN" "http://www.w3.org/Graphics/SVG/1.1/DTD/svg11.dtd">
<svg version="1.1" id="Layer_1" xmlns="http://www.w3.org/2000/svg" xmlns:xlink="http://www.w3.org/1999/xlink" x="0px" y="0px"
	 viewBox="793.4 604.5 300 300" enable-background="new 793.4 604.5 300 300" xml:space="preserve">
<g display="none">
	<g display="inline">
		<path d="M1928.8,419.3c-7.2-42.5-20.2-81.9-39.4-119.3c-19.7-37.9-44.5-72.2-73.5-100.9c-29.4-29.4-63.5-54.3-100.9-73.5
			c-37.9-18.9-76.8-31.5-119.3-39.4c-42-7.9-85.8-9.7-127.2-11.3c-9.7,0-20.2,0-29.4-0.8c-9.7,0-19.7-0.8-29.4-0.8h-70.1h-269.8H873
			H602.9h-70.7c-19.7,0-39.4,0-58.9,0.8c-35.3,1.3-82.7,3.3-127.2,11.3c-42.5,7.2-80.6,19.7-119.3,39.4
			c-37.9,19.7-72.2,44.5-100.9,73.5c-29.4,29.4-54.3,63.5-73.5,100.9C33.6,337.1,21.1,376,13.1,418.5c-7.9,42-9.7,85.8-11.3,127.2
			c0,9.7,0,20.2-0.8,29.4c0,9.7-0.8,19.7-0.8,29.4v70.1v270.1v196.6v270.1v70.1c0,19.7,0,39.4,0.8,58.9
			c1.3,35.3,3.3,82.7,11.3,127.2c7.2,42.5,20.2,81.9,39.4,119.3c19.7,37.9,44.5,72.2,73.5,100.9c29.4,29.4,63.5,54.3,100.9,73.5
			c37.9,18.9,76.8,31.5,119.3,39.4c42,7.9,85.8,9.7,127.2,11.3c9.7,0,20.2,0,29.4,0.8c9.7,0,19.7,0.8,29.4,0.8h70.1h270.1h447.5
			h18.9h70.1c19.7,0,39.4,0,58.9-0.8c35.3-1.3,82.7-3.3,127.2-11.3c42.5-7.2,80.6-19.7,119.3-39.4c37.9-19.7,72.2-44.5,100.9-73.5
			c29.4-29.4,54.3-63.5,73.5-100.9c18.9-37.9,31.5-76.8,39.4-119.3c7.9-42,9.7-85.8,11.3-127.2c0-9.7,0-20.2,0.8-29.4
			c0-9.7,0.8-19.7,0.8-29.4v-70.1v-269.6V946.1V676.1v-70.7c0-19.7,0-39.4-0.8-58.9C1938.5,510.9,1936.4,464.3,1928.8,419.3z"/>
	</g>
</g>
<g id="Layer_2" display="none">
	<g display="inline">
		<path fill="#CCCCCC" d="M1069.6,68.1L1069.6,68.1h269.8c23,0,47.1,0,70.1,0c23.6,0,42.5,0.8,59.6,0.8
			c37.9,0.8,83.2,3.3,128.5,11.8c44.5,8.4,84,21,120.6,39.4c37.9,18.9,72.2,44.5,102.9,74.8c30.2,30.2,55,64.8,74.8,102.9
			c18.9,36.6,32,76.8,39.4,120.6c8.4,45.3,10.5,90.4,11.3,128.5c0.8,17.2,0.8,35.3,0.8,59.6c0,23,0,47.1,0,70.1v270.1v196.6v270.1
			c0,23,0,47.1,0,70.1c0,23.6-0.8,42.5-0.8,59.6c-0.8,35.3-3.3,82.7-11.3,128.5c-8.4,44.5-21,84-39.4,120.6
			c-18.9,37.9-44.5,72.2-74.8,102.9c-30.2,30.2-64.8,55-102.9,74.8c-36.6,18.9-76.8,32-120.6,39.4c-45.3,8.4-90.4,10.5-128.5,11.8
			c-17.2,0.8-35.3,0.8-59.6,0.8c-23,0-47.1,0-70.1,0h-18.9H873H602.9c-23,0-47.1,0-70.1,0c-23.6,0-42.5-0.8-59.6-0.8
			c-37.9-1.3-83.2-3.3-128.5-11.8c-44.5-8.4-84-21-120.6-39.4c-37.9-18.9-72.2-44.5-102.9-74.8c-30.2-30.2-55-64.8-74.8-102.9
			c-18.9-36.6-32-76.8-39.4-120.6c-8.4-45.3-10.5-90.4-11.3-128.5c-0.8-17.2-0.8-35.3-0.8-59.6c0-23,0-47.1,0-70.1v-270.6V946.1
			V676.1c0-23,0-47.1,0-70.1c0-23.6,0.8-42.5,0.8-59.6C-3.5,510.9-1,463.6,7,417.7c8.4-44.5,21-84,39.4-120.6
			c18.9-37.9,44.5-72.2,74.8-102.9c30.2-30.2,64.8-55,102.9-74.8c36.6-18.9,76.8-32,120.6-39.4c45.3-8.4,90.4-10.5,128.5-11.8
			c17.2-0.8,35.3-0.8,59.6-0.8c23,0,47.1,0,70.1,0H873L1069.6,68.1 M1339.5,61.4h-269.8H1320H873H602.9c-23,0-47.1,0-70.1,0
			c-19.7,0-39.4,0.8-59.6,0.8c-43.3,1.3-86.5,3.3-129,11.8c-42.5,7.2-83.2,20.2-122.6,39.9c-38.7,19.7-74,45.3-104.2,76
			c-30.7,30.7-55.8,66.3-76,104.2C21.6,333.5,8.5,374,1.3,417.2c-7.2,42.5-10.5,85.8-11.8,129c-0.8,20.2-1.3,39.9-1.3,60.4
			c0,23,0,47.1,0,70.1v269.3v196.6v270.1c0,23,0,47.1,0,70.1c0,19.7,0.8,39.4,0.8,59.6c1.3,43.3,3.3,86.5,11.8,129
			c7.2,43.3,20.2,83.2,39.9,123.1c19.7,38.7,45.3,74,76,104.2c30.7,30.2,66.3,55.8,104.2,76c39.4,19.7,79.4,32.8,123.1,39.9
			c42.5,7.2,85.8,10.5,129,11.8c19.7,0.8,39.4,0.8,59.6,0.8c23,0,47.1,0,70.1,0H873h447.5h18.9c23,0,47.1,0,70.1,0
			c19.7,0,39.4-0.8,59.6-0.8c43.3-1.3,86.5-3.3,129-11.8c43.3-7.2,83.2-20.2,123.1-39.9c38.7-19.7,74-45.3,104.2-76
			c30.7-30.7,55.8-66.3,76-104.2c19.7-39.4,32.8-79.9,39.9-123.1c7.2-42.5,10.5-85.8,11.8-129c0.8-19.7,0.8-39.4,0.8-59.6
			c0-23,0-47.1,0-70.1v-270.1V946.1V676.1c0-23,0-47.1,0-70.1c0-19.7-0.8-39.4-0.8-59.6c-1.3-43.3-3.3-86.5-11.8-129
			c-7.2-43.3-20.2-83.2-39.9-123.1c-19.5-38.7-45.1-74-75.8-104.2c-30.7-30.7-66.3-55.8-104.2-76c-39.4-19.7-79.4-32.8-123.1-39.9
			c-42.5-7.2-85.8-10.5-129-11.8c-18.9-0.8-38.7-1.3-58.9-1.3C1386.8,61.4,1363,61.4,1339.5,61.4L1339.5,61.4z"/>
	</g>
</g>
<g>
	<path d="M1093.4,698.4c0-3.6,0-7.2,0-10.7c0-3-0.1-6-0.1-9.1c-0.2-6.6-0.6-13.2-1.7-19.7c-1.2-6.6-3.1-12.7-6.2-18.7
		c-3-5.9-6.9-11.3-11.6-16c-4.7-4.7-10.1-8.6-16-11.6c-6-3.1-12.1-5-18.7-6.2c-6.5-1.2-13.1-1.6-19.7-1.7c-3-0.1-6-0.1-9.1-0.1
		c-3.6,0-7.2,0-10.7,0H887.3c-3.6,0-7.2,0-10.7,0c-3,0-6,0.1-9.1,0.1c-6.6,0.2-13.2,0.6-19.7,1.7c-6.6,1.2-12.7,3.1-18.7,6.2
		c-5.9,3-11.3,6.9-16,11.6c-4.7,4.7-8.6,10.1-11.6,16c-3.1,6-5,12.1-6.2,18.7c-1.2,6.5-1.6,13.1-1.7,19.7c-0.1,3-0.1,6-0.1,9.1
		c0,3.6,0,7.2,0,10.7v112.3c0,3.6,0,7.2,0,10.7c0,3,0.1,6,0.1,9.1c0.2,6.6,0.6,13.2,1.7,19.7c1.2,6.6,3.1,12.7,6.2,18.7
		c3,5.9,6.9,11.3,11.6,16c4.7,4.7,10.1,8.6,16,11.6c6,3.1,12.1,5,18.7,6.2c6.5,1.2,13.1,1.6,19.7,1.7c3,0.1,6,0.1,9.1,0.1
		c3.6,0,7.2,0,10.7,0h112.3c3.6,0,7.2,0,10.7,0c3,0,6-0.1,9.1-0.1c6.6-0.2,13.2-0.6,19.7-1.7c6.6-1.2,12.7-3.1,18.7-6.2
		c5.9-3,11.3-6.9,16-11.6s8.6-10.1,11.6-16c3.1-6,5-12.1,6.2-18.7c1.2-6.5,1.6-13.1,1.7-19.7c0.1-3,0.1-6,0.1-9.1
		c0-3.6,0-7.2,0-10.7V698.4z"/>
</g>
</svg>
